<svg width="30" height="30" viewBox="0 0 30 30" fill="none" xmlns="http://www.w3.org/2000/svg">
<circle cx="15" cy="15" r="15" fill="#F1C30C"/>
<path d="M17.3937 4.8C16.0885 4.8 14.8368 5.34468 13.9139 6.31422C12.991 7.28376 12.4725 8.59873 12.4725 9.96987V12.8482H9.83902C9.70708 12.8482 9.59961 12.96 9.59961 13.0997V16.9003C9.59961 17.0389 9.70601 17.1518 9.83902 17.1518H12.4725V24.9485C12.4725 25.0871 12.5789 25.2 12.7119 25.2H16.3297C16.4616 25.2 16.5691 25.0882 16.5691 24.9485V17.1518H19.226C19.3356 17.1518 19.4313 17.0735 19.4579 16.9618L20.3624 13.1612C20.3713 13.1241 20.372 13.0854 20.3645 13.048C20.357 13.0105 20.3415 12.9754 20.3191 12.9452C20.2968 12.915 20.2681 12.8906 20.2354 12.8738C20.2027 12.857 20.1668 12.8483 20.1304 12.8482H16.5691V9.96987C16.5691 9.8561 16.5904 9.74345 16.6318 9.63835C16.6733 9.53324 16.734 9.43774 16.8106 9.3573C16.8872 9.27685 16.9781 9.21304 17.0781 9.16951C17.1782 9.12597 17.2854 9.10356 17.3937 9.10356H20.1602C20.2921 9.10356 20.3996 8.99178 20.3996 8.85206V5.05151C20.3996 4.9129 20.2932 4.8 20.1602 4.8H17.3937Z" fill="#12372A"/>
</svg>
