<svg width="30" height="30" viewBox="0 0 30 30" fill="none" xmlns="http://www.w3.org/2000/svg">
<circle cx="15" cy="15" r="15" fill="#F1C30C"/>
<path d="M10.7158 4.8H19.2838C22.5478 4.8 25.1998 7.452 25.1998 10.716V19.284C25.1998 20.853 24.5765 22.3578 23.467 23.4672C22.3576 24.5767 20.8528 25.2 19.2838 25.2H10.7158C7.4518 25.2 4.7998 22.548 4.7998 19.284V10.716C4.7998 9.14698 5.4231 7.64222 6.53256 6.53276C7.64203 5.42329 9.14678 4.8 10.7158 4.8ZM10.5118 6.84C9.53793 6.84 8.60394 7.22687 7.91531 7.91551C7.22668 8.60414 6.8398 9.53813 6.8398 10.512V19.488C6.8398 21.5178 8.482 23.16 10.5118 23.16H19.4878C20.4617 23.16 21.3957 22.7731 22.0843 22.0845C22.7729 21.3959 23.1598 20.4619 23.1598 19.488V10.512C23.1598 8.4822 21.5176 6.84 19.4878 6.84H10.5118ZM20.3548 8.37C20.693 8.37 21.0173 8.50433 21.2564 8.74344C21.4955 8.98255 21.6298 9.30685 21.6298 9.645C21.6298 9.98315 21.4955 10.3075 21.2564 10.5466C21.0173 10.7857 20.693 10.92 20.3548 10.92C20.0167 10.92 19.6924 10.7857 19.4532 10.5466C19.2141 10.3075 19.0798 9.98315 19.0798 9.645C19.0798 9.30685 19.2141 8.98255 19.4532 8.74344C19.6924 8.50433 20.0167 8.37 20.3548 8.37ZM14.9998 9.9C16.3524 9.9 17.6496 10.4373 18.606 11.3938C19.5625 12.3502 20.0998 13.6474 20.0998 15C20.0998 16.3526 19.5625 17.6498 18.606 18.6062C17.6496 19.5627 16.3524 20.1 14.9998 20.1C13.6472 20.1 12.35 19.5627 11.3936 18.6062C10.4371 17.6498 9.8998 16.3526 9.8998 15C9.8998 13.6474 10.4371 12.3502 11.3936 11.3938C12.35 10.4373 13.6472 9.9 14.9998 9.9ZM14.9998 11.94C14.1882 11.94 13.4099 12.2624 12.8361 12.8363C12.2622 13.4101 11.9398 14.1884 11.9398 15C11.9398 15.8116 12.2622 16.5899 12.8361 17.1637C13.4099 17.7376 14.1882 18.06 14.9998 18.06C15.8114 18.06 16.5897 17.7376 17.1636 17.1637C17.7374 16.5899 18.0598 15.8116 18.0598 15C18.0598 14.1884 17.7374 13.4101 17.1636 12.8363C16.5897 12.2624 15.8114 11.94 14.9998 11.94Z" fill="#12372A"/>
</svg>
