<svg width="30" height="30" viewBox="0 0 30 30" fill="none" xmlns="http://www.w3.org/2000/svg">
<circle cx="15" cy="15" r="15" fill="#F1C30C"/>
<path d="M12.9598 18.6857L18.2536 15.6L12.9598 12.5143V18.6857ZM24.751 10.632C24.8836 11.1154 24.9754 11.7634 25.0366 12.5863C25.108 13.4091 25.1386 14.1189 25.1386 14.736L25.1998 15.6C25.1998 17.8526 25.0366 19.5086 24.751 20.568C24.496 21.4937 23.9044 22.0903 22.9864 22.3474C22.507 22.4811 21.6298 22.5737 20.2834 22.6354C18.9574 22.7074 17.7436 22.7383 16.6216 22.7383L14.9998 22.8C10.726 22.8 8.0638 22.6354 7.0132 22.3474C6.0952 22.0903 5.5036 21.4937 5.2486 20.568C5.116 20.0846 5.0242 19.4366 4.963 18.6137C4.8916 17.7909 4.861 17.0811 4.861 16.464L4.7998 15.6C4.7998 13.3474 4.963 11.6914 5.2486 10.632C5.5036 9.70628 6.0952 9.10971 7.0132 8.85257C7.4926 8.71885 8.3698 8.62628 9.7162 8.56457C11.0422 8.49257 12.256 8.46171 13.378 8.46171L14.9998 8.39999C19.2736 8.39999 21.9358 8.56457 22.9864 8.85257C23.9044 9.10971 24.496 9.70628 24.751 10.632Z" fill="#12372A"/>
</svg>
